<svg width="466" height="227" viewBox="0 0 466 227" fill="none" xmlns="http://www.w3.org/2000/svg">
<rect width="466" height="227" fill="#E5E5E5"/>
<rect width="466" height="227" fill="#FB1528"/>
<path d="M114.984 101.152C114.984 103.104 114.536 104.896 113.64 106.528C112.744 108.128 111.368 109.424 109.512 110.416C107.656 111.408 105.352 111.904 102.6 111.904H97.5121V124H89.3041V90.304H102.6C105.288 90.304 107.56 90.768 109.416 91.696C111.272 92.624 112.664 93.904 113.592 95.536C114.52 97.168 114.984 99.04 114.984 101.152ZM101.976 105.376C103.544 105.376 104.712 105.008 105.48 104.272C106.248 103.536 106.632 102.496 106.632 101.152C106.632 99.808 106.248 98.768 105.48 98.032C104.712 97.296 103.544 96.928 101.976 96.928H97.5121V105.376H101.976ZM130.153 124.384C127.817 124.384 125.737 123.984 123.913 123.184C122.089 122.384 120.649 121.296 119.593 119.92C118.537 118.512 117.945 116.944 117.817 115.216H125.929C126.025 116.144 126.457 116.896 127.225 117.472C127.993 118.048 128.937 118.336 130.057 118.336C131.081 118.336 131.865 118.144 132.409 117.76C132.985 117.344 133.273 116.816 133.273 116.176C133.273 115.408 132.873 114.848 132.073 114.496C131.273 114.112 129.977 113.696 128.185 113.248C126.265 112.8 124.665 112.336 123.385 111.856C122.105 111.344 121.001 110.56 120.073 109.504C119.145 108.416 118.681 106.96 118.681 105.136C118.681 103.6 119.097 102.208 119.929 100.96C120.793 99.68 122.041 98.672 123.673 97.936C125.337 97.2 127.305 96.832 129.577 96.832C132.937 96.832 135.577 97.664 137.497 99.328C139.449 100.992 140.569 103.2 140.857 105.952H133.273C133.145 105.024 132.729 104.288 132.025 103.744C131.353 103.2 130.457 102.928 129.337 102.928C128.377 102.928 127.641 103.12 127.129 103.504C126.617 103.856 126.361 104.352 126.361 104.992C126.361 105.76 126.761 106.336 127.561 106.72C128.393 107.104 129.673 107.488 131.401 107.872C133.385 108.384 135.001 108.896 136.249 109.408C137.497 109.888 138.585 110.688 139.513 111.808C140.473 112.896 140.969 114.368 141.001 116.224C141.001 117.792 140.553 119.2 139.657 120.448C138.793 121.664 137.529 122.624 135.865 123.328C134.233 124.032 132.329 124.384 130.153 124.384ZM173.383 97.216L156.583 136.72H147.751L153.895 123.088L142.999 97.216H152.167L158.359 113.968L164.503 97.216H173.383ZM205.535 90.304V124H197.327V110.128H184.559V124H176.351V90.304H184.559V103.504H197.327V90.304H205.535ZM236.708 110.176C236.708 110.944 236.66 111.744 236.564 112.576H217.988C218.116 114.24 218.644 115.52 219.572 116.416C220.532 117.28 221.7 117.712 223.076 117.712C225.124 117.712 226.548 116.848 227.348 115.12H236.084C235.636 116.88 234.82 118.464 233.636 119.872C232.484 121.28 231.028 122.384 229.268 123.184C227.508 123.984 225.54 124.384 223.364 124.384C220.74 124.384 218.404 123.824 216.356 122.704C214.308 121.584 212.708 119.984 211.556 117.904C210.404 115.824 209.828 113.392 209.828 110.608C209.828 107.824 210.388 105.392 211.508 103.312C212.66 101.232 214.26 99.632 216.308 98.512C218.356 97.392 220.708 96.832 223.364 96.832C225.956 96.832 228.26 97.376 230.276 98.464C232.292 99.552 233.86 101.104 234.98 103.12C236.132 105.136 236.708 107.488 236.708 110.176ZM228.308 108.016C228.308 106.608 227.828 105.488 226.868 104.656C225.908 103.824 224.708 103.408 223.268 103.408C221.892 103.408 220.724 103.808 219.764 104.608C218.836 105.408 218.26 106.544 218.036 108.016H228.308ZM239.407 110.56C239.407 107.808 239.919 105.392 240.943 103.312C241.999 101.232 243.423 99.632 245.215 98.512C247.007 97.392 249.007 96.832 251.215 96.832C253.103 96.832 254.751 97.216 256.159 97.984C257.599 98.752 258.703 99.76 259.471 101.008V97.216H267.679V124H259.471V120.208C258.671 121.456 257.551 122.464 256.111 123.232C254.703 124 253.055 124.384 251.167 124.384C248.991 124.384 247.007 123.824 245.215 122.704C243.423 121.552 241.999 119.936 240.943 117.856C239.919 115.744 239.407 113.312 239.407 110.56ZM259.471 110.608C259.471 108.56 258.895 106.944 257.743 105.76C256.623 104.576 255.247 103.984 253.615 103.984C251.983 103.984 250.591 104.576 249.439 105.76C248.319 106.912 247.759 108.512 247.759 110.56C247.759 112.608 248.319 114.24 249.439 115.456C250.591 116.64 251.983 117.232 253.615 117.232C255.247 117.232 256.623 116.64 257.743 115.456C258.895 114.272 259.471 112.656 259.471 110.608ZM281.825 101.68C282.785 100.208 283.985 99.056 285.425 98.224C286.865 97.36 288.465 96.928 290.225 96.928V105.616H287.969C285.921 105.616 284.385 106.064 283.361 106.96C282.337 107.824 281.825 109.36 281.825 111.568V124H273.617V97.216H281.825V101.68ZM309.076 117.04V124H304.9C301.924 124 299.604 123.28 297.94 121.84C296.276 120.368 295.444 117.984 295.444 114.688V104.032H292.18V97.216H295.444V90.688H303.652V97.216H309.028V104.032H303.652V114.784C303.652 115.584 303.844 116.16 304.228 116.512C304.612 116.864 305.252 117.04 306.148 117.04H309.076Z" fill="white"/>
<path d="M373.583 92.2237C372.561 91.2017 371.348 90.3909 370.013 89.8378C368.678 89.2847 367.248 89 365.803 89C364.358 89 362.927 89.2847 361.592 89.8378C360.257 90.3909 359.044 91.2017 358.023 92.2237L355.903 94.3437L353.783 92.2237C351.719 90.1603 348.921 89.0011 346.003 89.0011C343.085 89.0011 340.286 90.1603 338.223 92.2237C336.159 94.287 335 97.0856 335 100.004C335 102.922 336.159 105.72 338.223 107.784L340.343 109.904L355.903 125.464L371.463 109.904L373.583 107.784C374.605 106.762 375.415 105.549 375.968 104.214C376.522 102.879 376.806 101.449 376.806 100.004C376.806 98.5587 376.522 97.1279 375.968 95.7929C375.415 94.458 374.605 93.2452 373.583 92.2237V92.2237Z" stroke="white" stroke-width="6" stroke-linecap="round" stroke-linejoin="round"/>
<path d="M292.921 158.235C292.873 158.181 292.845 158.139 292.837 158.108C292.096 156.948 291.365 155.024 290.644 152.335L290.594 152.149C290.42 151.5 290.194 151.213 289.916 151.288C288.68 151.619 288.157 152.14 288.347 152.851L289.104 154.934C289.154 155.119 289.11 155.761 288.974 156.857C288.837 157.954 288.847 158.796 289.004 159.383C289.162 159.971 289.318 160.244 289.472 160.202C289.75 160.128 290.143 159.923 290.65 159.589C291.148 159.223 291.66 158.97 292.185 158.829C292.742 158.68 292.987 158.482 292.921 158.235ZM281.478 150.766L280.154 148.238C280.08 147.96 281.047 146.873 283.057 144.976C285.089 143.04 286.309 141.968 286.717 141.759C287.125 141.55 287.901 141.293 289.044 140.986C290.188 140.68 291.283 140.502 292.33 140.454C294.556 140.354 295.727 140.521 295.843 140.953C295.852 140.984 295.882 141.407 295.935 142.221C296.086 144.764 296.352 146.747 296.733 148.169C296.775 148.324 296.962 148.406 297.296 148.416C297.622 148.395 297.789 148.4 297.797 148.431C298.062 149.42 299.159 152.339 301.088 157.189C303.04 162 304.406 164.996 305.187 166.179L305.199 166.225C305.216 166.287 305.022 166.554 304.619 167.027C304.246 167.491 304.114 167.924 304.221 168.326C304.329 168.728 304.635 168.944 305.14 168.974C305.676 168.996 306.189 168.991 306.677 168.96C307.157 168.897 307.431 168.99 307.497 169.237C307.482 169.307 307.496 169.419 307.537 169.574C307.579 169.729 307.7 169.994 307.9 170.371C308.158 170.965 308.749 171.684 309.671 172.53L310.074 172.92C310.215 173.445 309.483 174.237 307.878 175.297C306.313 176.379 305.098 177.036 304.232 177.268C303.397 177.491 302.517 177.545 301.592 177.428C300.705 177.335 299.95 177.173 299.325 176.943C298.731 176.704 298.413 176.508 298.372 176.353C298.363 176.322 298.349 176.144 298.328 175.818C298.275 175.004 298.129 174.149 297.889 173.253L295.167 167.174C295.134 167.05 295.383 166.868 295.914 166.626C296.446 166.384 296.67 166.109 296.587 165.799C296.48 165.398 296.157 165.12 295.619 164.966C295.08 164.812 294.471 164.826 293.791 165.008C293.142 165.182 292.4 165.563 291.563 166.152C290.758 166.732 290.32 167.197 290.248 167.548C290.199 167.859 290.351 169.293 290.704 171.848C291.05 174.373 291.384 176.238 291.707 177.443C291.773 177.691 291.045 178.25 289.523 179.122C288 179.994 286.698 180.574 285.617 180.864C285.06 181.013 284.041 180.856 282.558 180.392L281.856 180.182C281.738 180.114 281.655 179.988 281.605 179.802L281.58 179.71C281.887 178.998 282.107 177.597 282.243 175.507L282.341 174.387C282.742 174.28 283.144 173.924 283.545 173.319C283.969 172.676 284.156 172.261 284.106 172.076C284.049 171.859 283.792 171.58 283.336 171.239C282.871 170.866 282.627 170.633 282.602 170.541L282.59 170.494L283.162 165.769C282.98 165.089 282.693 162.598 282.303 158.297C281.943 153.987 281.668 151.477 281.478 150.766ZM320.105 151.696L319.313 150.964C319.304 150.933 319.323 150.879 319.368 150.8C319.436 150.683 319.487 150.503 319.522 150.262C319.588 150.013 319.637 149.701 319.669 149.328C319.741 148.481 319.548 147.207 319.093 145.507C319.085 145.476 318.838 145.36 318.353 145.159C317.861 144.926 317.593 144.733 317.552 144.578C317.477 144.3 317.545 143.503 317.756 142.188L317.885 141.557C317.786 141.186 317.505 140.88 317.043 140.64C316.581 140.399 316.144 140.251 315.732 140.196L315.16 140.101C314.151 141.531 313.717 142.508 313.858 143.034L314.956 146.019C314.51 146.702 314.32 147.167 314.386 147.414C314.452 147.662 314.525 147.808 314.603 147.853C315.183 148.162 315.501 148.424 315.559 148.64C315.609 148.826 315.6 148.977 315.532 149.095C315.487 149.173 315.522 149.429 315.638 149.862L316.231 151.889C316.413 152.569 316.483 153.014 316.44 153.225C317.044 153.626 317.517 153.781 317.857 153.69C318.227 153.591 318.712 153.295 319.309 152.804C319.906 152.313 320.171 151.943 320.105 151.696ZM327.626 142.674L328.295 145.725C328.436 146.25 328.594 146.655 328.769 146.94L328.807 147.079C328.972 147.697 328.665 149.022 327.884 151.053C327.095 153.053 326.515 154.103 326.144 154.203C325.804 154.294 325.189 154.906 324.3 156.038C323.433 157.132 323.033 157.802 323.1 158.05C323.149 158.235 322.377 158.69 320.782 159.416C319.21 160.102 318.433 160.476 318.449 160.538C319.269 163.598 320.171 165.974 321.154 167.665L321.622 168.484C321.68 168.7 321.292 169.168 320.458 169.889C319.646 170.57 319.184 171.008 319.071 171.204C318.822 171.636 318.166 172.093 317.103 172.577C316.547 172.726 315.411 172.815 313.696 172.843C311.981 172.872 311.082 172.732 310.999 172.423C311.149 171.621 310.991 169.858 310.526 167.133L310.246 165.717C310.238 165.687 310.283 165.608 310.382 165.482C310.757 165.15 310.886 164.768 310.77 164.335C310.646 163.871 310.26 163.544 309.613 163.353C308.988 163.123 308.667 162.977 308.65 162.915C308.551 162.544 308.614 161.914 308.84 161.026L308.96 160.546L308.195 157.322C307.914 156.271 307.714 155.712 307.597 155.644C307.479 155.576 307.404 155.48 307.371 155.357L307.306 152.889C307.252 152.44 307.15 151.937 307.001 151.381C306.57 149.774 305.847 147.814 304.83 145.503L304.25 144.267L304.613 143.026C304.464 142.47 303.768 141.48 302.526 140.057L301.872 139.288C303.198 137.31 304.587 136.126 306.039 135.737C308.106 135.415 309.222 135.315 309.387 135.436C309.788 135.693 310.311 136.348 310.957 137.401L311.304 137.954C311.562 138.05 311.753 138.082 311.877 138.049C312 138.016 312.069 137.964 312.084 137.894C312.64 136.386 312.948 135.31 313.007 134.665C314.744 134.1 316.015 133.71 316.818 133.495L317.341 133.404L317.433 133.379C317.852 133.334 318.551 133.345 319.53 133.414C320.501 133.452 321.104 133.539 321.339 133.675C322.554 134.376 323.883 135.627 325.326 137.427C325.817 138.024 326.117 138.341 326.227 138.378L326.239 138.424C326.264 138.517 326.104 138.908 325.758 139.597C325.435 140.246 325.295 140.648 325.336 140.803L325.348 140.849C325.431 141.158 325.625 141.388 325.931 141.538C326.228 141.657 326.546 141.671 326.886 141.58C327.164 141.506 327.411 141.87 327.626 142.674ZM342.9 154.533C342.996 155.137 343.238 156.165 343.627 157.618C344.016 159.071 344.852 160.52 346.134 161.965C346.175 162.12 346.044 162.37 345.739 162.717C345.465 163.055 345.268 163.307 345.146 163.472C345.016 163.606 344.841 163.819 344.621 164.11C344.432 164.392 344.277 164.616 344.155 164.781C343.814 165.237 343.55 165.49 343.365 165.54C342.468 165.78 340.939 166.008 338.777 166.222C336.646 166.429 335.535 166.362 335.444 166.022C335.394 165.837 335.264 165.043 335.054 163.642C334.844 162.241 334.734 161.458 334.724 161.296L334.874 160.56C334.333 157.425 333.933 155.379 333.677 154.42C333.42 153.462 333.055 152.285 332.581 150.888C332.138 149.482 331.763 148.39 331.455 147.611C331.169 146.793 331.022 146.369 331.014 146.338C330.997 146.276 331.092 146.135 331.298 145.914C331.854 145.268 332.061 144.683 331.92 144.157C331.78 143.632 331.413 143.316 330.822 143.209C330.253 143.064 329.956 142.944 329.931 142.852C329.848 142.543 329.735 141.811 329.591 140.657C329.439 139.472 329.28 138.57 329.115 137.952C328.949 137.334 328.516 136.522 327.816 135.517C327.147 134.504 326.792 133.92 326.751 133.765C326.684 133.518 327.246 132.771 328.436 131.525C329.649 130.239 330.549 129.517 331.136 129.36C331.754 129.194 332.812 129.126 334.311 129.155C335.801 129.153 336.609 129.384 336.733 129.848C336.824 130.188 336.882 131.084 336.906 132.535C336.931 133.986 336.968 134.804 337.017 134.99C337.067 135.175 337.205 135.32 337.432 135.425C337.682 135.491 337.831 135.616 337.881 135.802C338.485 139.417 338.953 141.842 339.284 143.079C339.607 144.284 339.813 144.991 339.902 145.199C339.983 145.376 340.133 145.568 340.354 145.773C340.575 145.979 340.718 146.206 340.785 146.453C340.793 146.484 340.604 146.767 340.217 147.301C339.861 147.827 339.724 148.245 339.807 148.554C339.89 148.863 340.252 149.163 340.893 149.455C341.535 149.747 341.918 150.125 342.042 150.589C342.115 151.232 342.144 151.588 342.13 151.658C342.138 151.689 341.956 151.937 341.583 152.401C341.203 152.834 341.029 153.113 341.062 153.237L341.149 153.561C341.256 153.963 341.648 154.189 342.325 154.24C342.667 154.281 342.859 154.378 342.9 154.533Z" fill="#FB1528"/>
<path d="M292.921 158.235L294.852 157.717L294.73 157.261L294.417 156.908L292.921 158.235ZM292.837 158.108L294.769 157.59L294.689 157.291L294.522 157.031L292.837 158.108ZM288.347 152.851L286.415 153.369L286.438 153.452L286.468 153.534L288.347 152.851ZM289.104 154.934L291.036 154.416L291.014 154.333L290.984 154.251L289.104 154.934ZM290.65 159.589L291.752 161.258L291.793 161.231L291.832 161.202L290.65 159.589ZM281.478 150.766L283.409 150.248L283.352 150.034L283.249 149.838L281.478 150.766ZM280.154 148.238L278.222 148.756L278.28 148.97L278.382 149.166L280.154 148.238ZM283.057 144.976L284.43 146.43L284.436 146.424L283.057 144.976ZM286.717 141.759L287.628 143.539L287.628 143.539L286.717 141.759ZM292.33 140.454L292.241 138.456L292.237 138.456L292.33 140.454ZM295.935 142.221L297.931 142.102L297.93 142.092L295.935 142.221ZM297.296 148.416L297.237 150.415L297.331 150.418L297.425 150.411L297.296 148.416ZM301.088 157.189L299.23 157.928L299.235 157.941L301.088 157.189ZM305.187 166.179L307.118 165.661L307.034 165.348L306.856 165.077L305.187 166.179ZM304.619 167.027L303.098 165.728L303.078 165.751L303.059 165.775L304.619 167.027ZM305.14 168.974L305.021 170.97L305.039 170.971L305.058 170.972L305.14 168.974ZM306.677 168.96L306.806 170.956L306.871 170.951L306.935 170.943L306.677 168.96ZM307.497 169.237L309.456 169.638L309.551 169.175L309.429 168.719L307.497 169.237ZM307.9 170.371L309.734 169.573L309.703 169.501L309.666 169.433L307.9 170.371ZM309.671 172.53L311.062 171.093L311.043 171.074L311.023 171.057L309.671 172.53ZM310.074 172.92L312.006 172.402L311.862 171.867L311.464 171.482L310.074 172.92ZM307.878 175.297L306.776 173.628L306.758 173.639L306.741 173.652L307.878 175.297ZM301.592 177.428L301.841 175.444L301.822 175.442L301.802 175.44L301.592 177.428ZM299.325 176.943L298.58 178.799L298.606 178.809L298.634 178.819L299.325 176.943ZM298.328 175.818L300.324 175.69L300.324 175.69L298.328 175.818ZM297.889 173.253L299.821 172.735L299.779 172.581L299.714 172.435L297.889 173.253ZM295.167 167.174L293.235 167.692L293.276 167.846L293.341 167.991L295.167 167.174ZM295.914 166.626L295.086 164.805L295.086 164.805L295.914 166.626ZM295.619 164.966L296.169 163.043L296.169 163.043L295.619 164.966ZM291.563 166.152L290.412 164.516L290.403 164.523L290.394 164.529L291.563 166.152ZM290.248 167.548L288.288 167.147L288.279 167.191L288.272 167.236L290.248 167.548ZM290.704 171.848L292.686 171.577L292.686 171.574L290.704 171.848ZM289.523 179.122L288.529 177.386L288.529 177.386L289.523 179.122ZM282.558 180.392L283.156 178.483L283.143 178.479L283.13 178.475L282.558 180.392ZM281.856 180.182L280.856 181.914L281.059 182.032L281.284 182.099L281.856 180.182ZM281.58 179.71L279.743 178.919L279.469 179.557L279.648 180.227L281.58 179.71ZM282.243 175.507L280.251 175.333L280.249 175.355L280.247 175.377L282.243 175.507ZM282.341 174.387L281.823 172.456L280.47 172.818L280.348 174.214L282.341 174.387ZM283.545 173.319L285.212 174.425L285.216 174.419L283.545 173.319ZM283.336 171.239L282.084 172.798L282.11 172.819L282.136 172.839L283.336 171.239ZM282.59 170.494L280.604 170.254L280.557 170.638L280.658 171.012L282.59 170.494ZM283.162 165.769L285.148 166.01L285.194 165.625L285.094 165.252L283.162 165.769ZM282.303 158.297L280.31 158.463L280.31 158.471L280.311 158.478L282.303 158.297ZM294.417 156.908C294.433 156.925 294.478 156.978 294.533 157.061C294.577 157.128 294.695 157.314 294.769 157.59L290.905 158.626C291.045 159.149 291.365 159.495 291.424 159.562L294.417 156.908ZM294.522 157.031C293.954 156.143 293.286 154.468 292.576 151.817L288.712 152.853C289.443 155.58 290.237 157.754 291.152 159.185L294.522 157.031ZM292.576 151.817L292.526 151.632L288.662 152.667L288.712 152.853L292.576 151.817ZM292.526 151.632C292.418 151.228 292.233 150.677 291.866 150.21C291.668 149.959 291.355 149.652 290.892 149.457C290.397 149.248 289.873 149.229 289.398 149.356L290.434 153.219C290.098 153.309 289.707 153.298 289.338 153.142C289.002 153.001 288.808 152.792 288.723 152.684C288.581 152.504 288.597 152.422 288.662 152.667L292.526 151.632ZM289.398 149.356C288.658 149.554 287.815 149.882 287.185 150.51C286.418 151.274 286.134 152.319 286.415 153.369L290.279 152.333C290.308 152.443 290.333 152.639 290.269 152.874C290.206 153.109 290.087 153.265 290.008 153.344C289.94 153.412 289.914 153.411 289.995 153.372C290.072 153.334 290.212 153.279 290.434 153.219L289.398 149.356ZM286.468 153.534L287.224 155.617L290.984 154.251L290.227 152.168L286.468 153.534ZM287.172 155.452C287.137 155.319 287.128 155.222 287.126 155.2C287.123 155.169 287.124 155.157 287.124 155.173C287.124 155.207 287.123 155.284 287.113 155.418C287.095 155.684 287.055 156.076 286.989 156.61L290.958 157.105C291.028 156.542 291.079 156.065 291.104 155.689C291.117 155.503 291.125 155.317 291.124 155.144C291.123 155.019 291.119 154.726 291.036 154.416L287.172 155.452ZM286.989 156.61C286.842 157.788 286.814 158.938 287.073 159.901L290.936 158.866C290.88 158.655 290.832 158.12 290.958 157.105L286.989 156.61ZM287.073 159.901C287.162 160.237 287.294 160.654 287.503 161.021C287.604 161.197 287.806 161.513 288.161 161.778C288.575 162.087 289.234 162.337 289.99 162.134L288.955 158.27C289.633 158.089 290.214 158.32 290.552 158.571C290.828 158.777 290.953 158.997 290.976 159.036C291.029 159.13 291.004 159.117 290.936 158.866L287.073 159.901ZM289.99 162.134C290.6 161.971 291.219 161.609 291.752 161.258L289.548 157.92C289.332 158.062 289.168 158.158 289.051 158.219C288.923 158.286 288.899 158.285 288.955 158.27L289.99 162.134ZM291.832 161.202C292.158 160.963 292.447 160.83 292.703 160.761L291.668 156.897C290.872 157.111 290.138 157.483 289.467 157.976L291.832 161.202ZM292.703 160.761C293.064 160.664 293.592 160.49 294.044 160.124C294.29 159.925 294.585 159.612 294.768 159.156C294.963 158.671 294.973 158.167 294.852 157.717L290.989 158.752C290.901 158.426 290.906 158.04 291.056 157.666C291.194 157.321 291.405 157.114 291.529 157.014C291.736 156.846 291.863 156.845 291.668 156.897L292.703 160.761ZM283.249 149.838L281.926 147.311L278.382 149.166L279.706 151.694L283.249 149.838ZM282.086 147.721C282.244 148.31 282.064 148.757 282.04 148.818C281.993 148.941 281.95 149 281.968 148.972C281.999 148.924 282.1 148.789 282.318 148.543C282.743 148.066 283.437 147.367 284.43 146.43L281.684 143.521C280.667 144.481 279.872 145.275 279.33 145.885C279.065 146.183 278.812 146.49 278.62 146.783C278.526 146.927 278.404 147.131 278.31 147.374C278.24 147.555 278.046 148.097 278.222 148.756L282.086 147.721ZM284.436 146.424C285.445 145.463 286.236 144.732 286.816 144.222C287.107 143.966 287.332 143.778 287.495 143.649C287.692 143.495 287.713 143.496 287.628 143.539L285.806 139.978C285.517 140.126 285.233 140.34 285.022 140.506C284.779 140.697 284.494 140.937 284.176 141.217C283.536 141.779 282.701 142.553 281.677 143.528L284.436 146.424ZM287.628 143.539C287.823 143.439 288.406 143.228 289.562 142.918L288.527 139.054C287.395 139.358 286.426 139.661 285.806 139.978L287.628 143.539ZM289.562 142.918C290.584 142.644 291.537 142.493 292.423 142.451L292.237 138.456C291.03 138.512 289.792 138.715 288.527 139.054L289.562 142.918ZM292.42 142.452C293.497 142.403 294.198 142.427 294.596 142.484C294.806 142.514 294.811 142.537 294.714 142.492C294.65 142.462 294.107 142.199 293.912 141.471L297.775 140.436C297.522 139.492 296.789 139.045 296.403 138.866C295.985 138.671 295.536 138.577 295.16 138.524C294.387 138.414 293.39 138.404 292.241 138.456L292.42 142.452ZM293.912 141.471C293.889 141.387 293.878 141.321 293.874 141.301C293.869 141.272 293.866 141.25 293.864 141.238C293.861 141.214 293.859 141.198 293.859 141.197C293.858 141.191 293.859 141.197 293.861 141.22C293.865 141.263 293.87 141.334 293.878 141.437C293.892 141.641 293.913 141.944 293.939 142.35L297.93 142.092C297.904 141.684 297.883 141.369 297.867 141.15C297.859 141.042 297.852 140.95 297.847 140.88C297.844 140.846 297.84 140.807 297.836 140.77C297.834 140.752 297.831 140.723 297.826 140.69C297.826 140.689 297.812 140.572 297.775 140.436L293.912 141.471ZM293.938 142.34C294.093 144.936 294.369 147.073 294.801 148.687L298.665 147.651C298.335 146.421 298.079 144.593 297.931 142.102L293.938 142.34ZM294.801 148.687C295.022 149.509 295.622 149.968 296.102 150.178C296.533 150.367 296.955 150.406 297.237 150.415L297.356 146.417C297.304 146.415 297.465 146.408 297.708 146.515C298.001 146.643 298.486 146.983 298.665 147.651L294.801 148.687ZM297.425 150.411C297.572 150.402 297.62 150.403 297.606 150.403C297.599 150.402 297.576 150.402 297.542 150.399C297.512 150.396 297.446 150.389 297.36 150.372C297.295 150.358 297.104 150.317 296.879 150.202C296.709 150.116 296.085 149.769 295.865 148.948L299.729 147.913C299.507 147.084 298.876 146.73 298.694 146.638C298.457 146.517 298.249 146.471 298.162 146.453C297.97 146.413 297.801 146.407 297.725 146.404C297.545 146.399 297.346 146.408 297.168 146.42L297.425 150.411ZM295.865 148.948C296.169 150.08 297.324 153.136 299.23 157.928L302.947 156.45C300.995 151.542 299.956 148.76 299.729 147.913L295.865 148.948ZM299.235 157.941C301.163 162.693 302.604 165.898 303.518 167.281L306.856 165.077C306.208 164.095 304.917 161.307 302.942 156.437L299.235 157.941ZM303.255 166.696L303.267 166.743L307.131 165.707L307.118 165.661L303.255 166.696ZM303.267 166.743C303.185 166.435 303.195 166.174 303.212 166.019C303.23 165.857 303.264 165.731 303.289 165.653C303.337 165.501 303.392 165.397 303.41 165.363C303.451 165.288 303.476 165.259 303.446 165.299C303.397 165.367 303.289 165.504 303.098 165.728L306.14 168.325C306.352 168.077 306.542 167.844 306.686 167.645C306.754 167.552 306.849 167.414 306.934 167.257C306.974 167.182 307.045 167.043 307.102 166.863C307.137 166.751 307.285 166.284 307.131 165.707L303.267 166.743ZM303.059 165.775C302.47 166.509 301.954 167.591 302.289 168.843L306.153 167.808C306.177 167.896 306.187 167.988 306.185 168.078C306.182 168.166 306.167 168.236 306.152 168.284C306.125 168.374 306.104 168.372 306.179 168.278L303.059 165.775ZM302.289 168.843C302.45 169.443 302.801 170.016 303.379 170.424C303.925 170.808 304.523 170.94 305.021 170.97L305.26 166.978C305.261 166.978 305.306 166.98 305.38 167.003C305.456 167.026 305.566 167.071 305.685 167.155C305.956 167.346 306.1 167.61 306.153 167.808L302.289 168.843ZM305.058 170.972C305.658 170.997 306.241 170.992 306.806 170.956L306.548 166.964C306.136 166.99 305.695 166.995 305.223 166.976L305.058 170.972ZM306.935 170.943C307.052 170.928 306.886 170.973 306.601 170.877C306.436 170.821 306.208 170.709 305.994 170.494C305.772 170.272 305.633 170.009 305.565 169.755L309.429 168.719C309.198 167.859 308.559 167.316 307.883 167.088C307.325 166.899 306.783 166.929 306.419 166.976L306.935 170.943ZM305.537 168.836C305.421 169.405 305.56 169.92 305.606 170.092L309.469 169.056C309.464 169.036 309.474 169.067 309.482 169.135C309.486 169.17 309.492 169.229 309.491 169.306C309.491 169.381 309.485 169.497 309.456 169.638L305.537 168.836ZM305.606 170.092C305.714 170.496 305.943 170.95 306.134 171.31L309.666 169.433C309.577 169.265 309.517 169.144 309.48 169.061C309.461 169.02 309.452 168.998 309.449 168.99C309.445 168.98 309.455 169.005 309.469 169.056L305.606 170.092ZM306.066 171.17C306.498 172.161 307.348 173.113 308.319 174.004L311.023 171.057C310.15 170.256 309.819 169.768 309.734 169.573L306.066 171.17ZM308.281 173.968L308.683 174.357L311.464 171.482L311.062 171.093L308.281 173.968ZM308.142 173.437C308.024 172.997 308.138 172.662 308.191 172.545C308.238 172.441 308.262 172.441 308.161 172.551C307.958 172.771 307.531 173.129 306.776 173.628L308.98 176.966C309.83 176.405 310.571 175.837 311.1 175.265C311.364 174.978 311.646 174.616 311.841 174.182C312.041 173.736 312.194 173.105 312.006 172.402L308.142 173.437ZM306.741 173.652C305.201 174.716 304.225 175.199 303.714 175.336L304.75 179.199C305.97 178.873 307.425 178.041 309.015 176.942L306.741 173.652ZM303.714 175.336C303.149 175.487 302.531 175.531 301.841 175.444L301.342 179.413C302.504 179.559 303.646 179.495 304.75 179.199L303.714 175.336ZM301.802 175.44C301.028 175.358 300.444 175.223 300.016 175.066L298.634 178.819C299.456 179.122 300.382 179.312 301.381 179.417L301.802 175.44ZM300.07 175.087C299.951 175.039 299.86 174.999 299.792 174.967C299.759 174.951 299.734 174.938 299.717 174.929C299.699 174.919 299.692 174.915 299.693 174.916C299.694 174.916 299.708 174.925 299.733 174.943C299.756 174.961 299.8 174.995 299.853 175.047C299.904 175.097 299.982 175.181 300.062 175.301C300.142 175.42 300.24 175.599 300.304 175.836L296.44 176.871C296.582 177.4 296.888 177.743 297.056 177.907C297.244 178.09 297.439 178.225 297.589 178.317C297.89 178.504 298.24 178.662 298.58 178.799L300.07 175.087ZM300.304 175.836C300.314 175.873 300.321 175.905 300.326 175.927C300.331 175.95 300.334 175.969 300.337 175.984C300.342 176.012 300.346 176.034 300.347 176.046C300.349 176.06 300.351 176.069 300.351 176.075C300.352 176.08 300.352 176.084 300.352 176.085C300.352 176.085 300.351 176.07 300.348 176.033C300.342 175.961 300.334 175.849 300.324 175.69L296.332 175.947C296.343 176.114 296.352 176.253 296.361 176.36C296.365 176.412 296.37 176.468 296.376 176.52C296.379 176.546 296.383 176.582 296.389 176.623C296.392 176.642 296.407 176.747 296.44 176.871L300.304 175.836ZM300.324 175.69C300.262 174.728 300.09 173.742 299.821 172.735L295.957 173.77C296.168 174.556 296.289 175.281 296.332 175.947L300.324 175.69ZM299.714 172.435L296.992 166.357L293.341 167.991L296.063 174.07L299.714 172.435ZM297.099 166.656C297.305 167.425 296.981 168.008 296.829 168.223C296.677 168.439 296.526 168.547 296.511 168.557C296.467 168.59 296.512 168.551 296.743 168.446L295.086 164.805C294.785 164.942 294.44 165.116 294.146 165.331C294.007 165.433 293.767 165.625 293.56 165.917C293.355 166.209 293.012 166.861 293.235 167.692L297.099 166.656ZM296.743 168.446C297.13 168.27 297.639 167.984 298.032 167.501C298.498 166.929 298.747 166.132 298.519 165.282L294.656 166.317C294.595 166.093 294.582 165.827 294.648 165.554C294.712 165.289 294.832 165.096 294.931 164.975C295.1 164.767 295.231 164.74 295.086 164.805L296.743 168.446ZM298.519 165.282C298.169 163.973 297.119 163.315 296.169 163.043L295.069 166.889C295.143 166.91 295.075 166.905 294.96 166.806C294.824 166.689 294.708 166.514 294.656 166.317L298.519 165.282ZM296.169 163.043C295.203 162.767 294.215 162.824 293.274 163.076L294.309 166.94C294.728 166.828 294.958 166.857 295.069 166.889L296.169 163.043ZM293.274 163.076C292.312 163.334 291.351 163.856 290.412 164.516L292.714 167.787C293.448 167.271 293.973 167.03 294.309 166.94L293.274 163.076ZM290.394 164.529C289.938 164.858 289.515 165.203 289.175 165.564C288.874 165.883 288.437 166.421 288.288 167.147L292.207 167.949C292.164 168.16 292.088 168.289 292.066 168.324C292.042 168.363 292.039 168.357 292.086 168.308C292.184 168.203 292.383 168.026 292.733 167.774L290.394 164.529ZM288.272 167.236C288.221 167.559 288.241 167.916 288.252 168.11C288.268 168.372 288.297 168.695 288.336 169.068C288.416 169.815 288.546 170.837 288.723 172.122L292.686 171.574C292.51 170.304 292.387 169.331 292.314 168.645C292.277 168.301 292.256 168.047 292.245 167.874C292.231 167.631 292.25 167.692 292.223 167.859L288.272 167.236ZM288.723 172.119C289.07 174.66 289.418 176.628 289.775 177.961L293.639 176.926C293.35 175.848 293.029 174.086 292.686 171.577L288.723 172.119ZM289.775 177.961C289.635 177.439 289.754 177.013 289.842 176.797C289.928 176.585 290.031 176.456 290.061 176.419C290.122 176.345 290.129 176.357 289.992 176.463C289.737 176.658 289.269 176.963 288.529 177.386L290.517 180.857C291.299 180.409 291.956 179.998 292.429 179.634C292.656 179.46 292.928 179.231 293.154 178.956C293.267 178.818 293.428 178.598 293.547 178.304C293.668 178.008 293.795 177.509 293.639 176.926L289.775 177.961ZM288.529 177.386C287.082 178.215 285.948 178.705 285.099 178.932L286.134 182.796C287.449 182.444 288.919 181.772 290.517 180.857L288.529 177.386ZM285.099 178.932C285.224 178.899 285.158 178.946 284.74 178.881C284.365 178.823 283.844 178.699 283.156 178.483L281.961 182.3C282.755 182.549 283.485 182.735 284.129 182.834C284.73 182.927 285.453 182.979 286.134 182.796L285.099 178.932ZM283.13 178.475L282.428 178.266L281.284 182.099L281.986 182.308L283.13 178.475ZM282.856 178.45C283.36 178.741 283.507 179.172 283.537 179.285L279.673 180.32C279.803 180.803 280.117 181.488 280.856 181.914L282.856 178.45ZM283.537 179.285L283.512 179.192L279.648 180.227L279.673 180.32L283.537 179.285ZM283.417 180.5C283.879 179.428 284.106 177.692 284.239 175.636L280.247 175.377C280.109 177.503 279.894 178.569 279.743 178.919L283.417 180.5ZM284.235 175.681L284.333 174.561L280.348 174.214L280.251 175.333L284.235 175.681ZM282.858 176.319C283.974 176.02 284.723 175.161 285.212 174.425L281.879 172.213C281.743 172.418 281.651 172.512 281.616 172.543C281.583 172.573 281.65 172.502 281.823 172.456L282.858 176.319ZM285.216 174.419C285.452 174.061 285.67 173.695 285.826 173.348C285.905 173.175 285.992 172.954 286.049 172.704C286.1 172.483 286.171 172.054 286.038 171.558L282.175 172.593C282.117 172.379 282.111 172.198 282.116 172.078C282.12 171.956 282.138 171.864 282.15 171.811C282.173 171.712 282.196 171.669 282.18 171.703C282.168 171.729 282.14 171.787 282.087 171.879C282.034 171.97 281.965 172.083 281.875 172.219L285.216 174.419ZM286.038 171.558C285.887 170.991 285.556 170.582 285.341 170.349C285.1 170.087 284.817 169.85 284.535 169.638L282.136 172.839C282.219 172.901 282.281 172.952 282.327 172.992C282.374 173.032 282.395 173.055 282.399 173.059C282.405 173.065 282.378 173.037 282.338 172.975C282.3 172.915 282.226 172.786 282.175 172.593L286.038 171.558ZM284.587 169.679C284.371 169.505 284.245 169.395 284.182 169.336C284.149 169.304 284.165 169.316 284.202 169.361C284.221 169.384 284.266 169.44 284.318 169.522C284.345 169.565 284.38 169.626 284.416 169.702C284.451 169.777 284.497 169.886 284.534 170.023L280.67 171.058C280.798 171.534 281.073 171.853 281.121 171.912C281.226 172.039 281.337 172.149 281.426 172.234C281.608 172.407 281.836 172.599 282.084 172.798L284.587 169.679ZM284.534 170.023L284.521 169.977L280.658 171.012L280.67 171.058L284.534 170.023ZM284.575 170.735L285.148 166.01L281.177 165.529L280.604 170.254L284.575 170.735ZM285.094 165.252C285.049 165.083 284.946 164.451 284.798 163.163C284.657 161.94 284.489 160.26 284.295 158.116L280.311 158.478C280.507 160.635 280.678 162.351 280.824 163.62C280.962 164.822 281.093 165.775 281.23 166.287L285.094 165.252ZM284.296 158.131C284.115 155.969 283.955 154.244 283.815 152.964C283.682 151.75 283.552 150.781 283.409 150.248L279.546 151.284C279.594 151.462 279.697 152.104 279.839 153.4C279.973 154.63 280.131 156.315 280.31 158.463L284.296 158.131ZM320.105 151.696L322.037 151.178L321.887 150.619L321.462 150.227L320.105 151.696ZM319.313 150.964L317.381 151.482L317.531 152.041L317.956 152.433L319.313 150.964ZM319.522 150.262L317.588 149.753L317.559 149.864L317.543 149.977L319.522 150.262ZM319.669 149.328L321.662 149.502L321.662 149.495L319.669 149.328ZM318.353 145.159L317.501 146.968L317.543 146.988L317.586 147.006L318.353 145.159ZM317.756 142.188L315.797 141.787L315.788 141.829L315.781 141.872L317.756 142.188ZM317.885 141.557L319.845 141.958L319.939 141.496L319.817 141.039L317.885 141.557ZM317.043 140.64L317.967 138.866L317.967 138.866L317.043 140.64ZM315.732 140.196L315.404 142.169L315.435 142.174L315.466 142.178L315.732 140.196ZM315.16 140.101L315.488 138.128L314.249 137.922L313.525 138.948L315.16 140.101ZM313.858 143.034L311.926 143.551L311.95 143.639L311.981 143.724L313.858 143.034ZM314.956 146.019L316.63 147.114L317.181 146.272L316.833 145.329L314.956 146.019ZM314.603 147.853L313.603 149.585L313.633 149.602L313.663 149.619L314.603 147.853ZM315.532 149.095L317.264 150.095L317.264 150.095L315.532 149.095ZM315.638 149.862L313.706 150.379L313.712 150.401L313.719 150.423L315.638 149.862ZM316.231 151.889L318.163 151.372L318.157 151.35L318.151 151.328L316.231 151.889ZM316.44 153.225L314.48 152.824L314.21 154.145L315.334 154.891L316.44 153.225ZM319.309 152.804L320.579 154.348L320.579 154.348L319.309 152.804ZM327.626 142.674L329.58 142.246L329.57 142.201L329.558 142.156L327.626 142.674ZM328.295 145.725L326.341 146.153L326.351 146.198L326.363 146.243L328.295 145.725ZM328.769 146.94L330.701 146.422L330.625 146.138L330.471 145.889L328.769 146.94ZM327.884 151.053L329.744 151.787L329.747 151.779L329.751 151.771L327.884 151.053ZM324.3 156.038L325.867 157.28L325.873 157.273L324.3 156.038ZM320.782 159.416L321.582 161.249L321.596 161.243L321.61 161.236L320.782 159.416ZM321.154 167.665L322.89 166.673L322.887 166.666L322.883 166.66L321.154 167.665ZM321.622 168.484L323.554 167.966L323.487 167.716L323.358 167.491L321.622 168.484ZM320.458 169.889L321.744 171.42L321.755 171.411L321.765 171.402L320.458 169.889ZM319.071 171.204L320.803 172.204L320.803 172.204L319.071 171.204ZM317.103 172.577L317.621 174.508L317.781 174.466L317.931 174.397L317.103 172.577ZM313.696 172.843L313.662 170.844L313.696 172.843ZM310.999 172.423L309.033 172.057L308.95 172.502L309.068 172.941L310.999 172.423ZM310.526 167.133L312.498 166.797L312.493 166.771L312.488 166.745L310.526 167.133ZM310.246 165.717L312.208 165.33L312.195 165.264L312.178 165.2L310.246 165.717ZM310.382 165.482L309.055 163.986L308.92 164.106L308.809 164.247L310.382 165.482ZM309.613 163.353L308.921 165.23L308.984 165.253L309.047 165.271L309.613 163.353ZM308.84 161.026L310.778 161.518L310.78 161.511L308.84 161.026ZM308.96 160.546L310.9 161.032L311.018 160.559L310.906 160.085L308.96 160.546ZM308.195 157.322L310.141 156.861L310.135 156.833L310.127 156.805L308.195 157.322ZM307.597 155.644L306.597 157.376L306.597 157.376L307.597 155.644ZM307.371 155.357L305.371 155.409L305.378 155.646L305.439 155.874L307.371 155.357ZM307.306 152.889L309.305 152.837L309.303 152.743L309.291 152.65L307.306 152.889ZM304.83 145.503L306.66 144.697L306.651 144.675L306.64 144.653L304.83 145.503ZM304.25 144.267L302.331 143.704L302.118 144.43L302.439 145.116L304.25 144.267ZM304.613 143.026L306.533 143.588L306.69 143.05L306.545 142.509L304.613 143.026ZM302.526 140.057L301.002 141.352L301.01 141.363L301.019 141.373L302.526 140.057ZM301.872 139.288L300.211 138.175L299.37 139.431L300.348 140.583L301.872 139.288ZM306.039 135.737L305.731 133.761L305.625 133.777L305.522 133.805L306.039 135.737ZM309.387 135.436L308.202 137.047L308.253 137.084L308.306 137.118L309.387 135.436ZM310.957 137.401L309.253 138.447L309.258 138.455L309.263 138.463L310.957 137.401ZM311.304 137.954L309.61 139.016L309.97 139.589L310.603 139.826L311.304 137.954ZM312.084 137.894L310.207 137.201L310.155 137.344L310.124 137.493L312.084 137.894ZM313.007 134.665L312.389 132.763L311.136 133.17L311.016 134.483L313.007 134.665ZM316.818 133.495L316.478 131.524L316.388 131.539L316.301 131.563L316.818 133.495ZM317.341 133.404L317.681 135.375L317.771 135.36L317.858 135.336L317.341 133.404ZM317.433 133.379L317.216 131.391L317.063 131.408L316.916 131.448L317.433 133.379ZM319.53 133.414L319.389 135.409L319.42 135.411L319.452 135.412L319.53 133.414ZM321.339 133.675L320.339 135.407L320.339 135.407L321.339 133.675ZM325.326 137.427L323.765 138.678L323.773 138.688L323.781 138.697L325.326 137.427ZM326.227 138.378L328.159 137.86L327.882 136.826L326.868 136.483L326.227 138.378ZM325.758 139.597L323.97 138.7L323.967 138.707L325.758 139.597ZM325.931 141.538L325.048 143.333L325.116 143.366L325.186 143.394L325.931 141.538ZM321.462 150.227L320.67 149.495L317.956 152.433L318.748 153.165L321.462 150.227ZM321.245 150.447C321.327 150.754 321.316 151.014 321.297 151.173C321.278 151.337 321.241 151.465 321.215 151.541C321.165 151.688 321.111 151.782 321.1 151.8L317.636 149.8C317.58 149.897 317.494 150.058 317.426 150.259C317.378 150.4 317.221 150.886 317.381 151.482L321.245 150.447ZM321.1 151.8C321.359 151.352 321.455 150.872 321.502 150.547L317.543 149.977C317.534 150.033 317.529 150.046 317.535 150.027C317.538 150.017 317.545 149.992 317.56 149.955C317.574 149.92 317.598 149.866 317.636 149.8L321.1 151.8ZM321.456 150.771C321.561 150.375 321.623 149.942 321.662 149.502L317.677 149.154C317.65 149.46 317.615 149.65 317.588 149.753L321.456 150.771ZM321.662 149.495C321.764 148.283 321.49 146.726 321.025 144.99L317.161 146.025C317.607 147.688 317.717 148.679 317.676 149.161L321.662 149.495ZM321.025 144.99C320.9 144.524 320.641 144.234 320.564 144.15C320.454 144.03 320.353 143.948 320.299 143.907C320.188 143.822 320.088 143.763 320.042 143.736C319.938 143.676 319.832 143.624 319.754 143.588C319.588 143.509 319.371 143.416 319.121 143.312L317.586 147.006C317.821 147.103 317.969 147.168 318.049 147.206C318.095 147.228 318.083 147.223 318.042 147.2C318.027 147.192 317.952 147.148 317.858 147.076C317.813 147.041 317.718 146.965 317.613 146.851C317.559 146.792 317.483 146.702 317.406 146.581C317.332 146.465 317.228 146.277 317.161 146.025L321.025 144.99ZM319.206 143.35C319.01 143.257 318.946 143.212 318.956 143.219C318.963 143.224 319.033 143.274 319.122 143.375C319.203 143.466 319.386 143.695 319.484 144.061L315.62 145.096C315.834 145.893 316.433 146.331 316.61 146.459C316.888 146.66 317.204 146.828 317.501 146.968L319.206 143.35ZM319.484 144.061C319.532 144.242 319.523 144.344 319.523 144.26C319.522 144.209 319.526 144.107 319.54 143.942C319.568 143.614 319.629 143.141 319.731 142.504L315.781 141.872C315.673 142.551 315.594 143.133 315.554 143.602C315.534 143.835 315.521 144.068 315.523 144.284C315.524 144.469 315.534 144.776 315.62 145.096L319.484 144.061ZM319.716 142.589L319.845 141.958L315.926 141.156L315.797 141.787L319.716 142.589ZM319.817 141.039C319.526 139.954 318.742 139.269 317.967 138.866L316.119 142.414C316.195 142.453 316.178 142.458 316.127 142.402C316.067 142.337 315.994 142.225 315.953 142.075L319.817 141.039ZM317.967 138.866C317.349 138.544 316.689 138.306 315.997 138.214L315.466 142.178C315.599 142.196 315.813 142.254 316.119 142.414L317.967 138.866ZM316.06 138.223L315.488 138.128L314.831 142.074L315.404 142.169L316.06 138.223ZM313.525 138.948C312.987 139.712 312.543 140.435 312.25 141.095C312 141.658 311.668 142.585 311.926 143.551L315.79 142.516C315.826 142.649 315.833 142.756 315.832 142.824C315.832 142.892 315.825 142.932 315.823 142.937C315.823 142.942 315.837 142.874 315.906 142.718C316.047 142.4 316.324 141.92 316.794 141.254L313.525 138.948ZM311.981 143.724L313.079 146.71L316.833 145.329L315.735 142.343L311.981 143.724ZM313.282 144.925C313.027 145.316 312.791 145.723 312.628 146.123C312.502 146.431 312.242 147.138 312.454 147.932L316.318 146.897C316.361 147.056 316.372 147.194 316.373 147.297C316.374 147.4 316.364 147.48 316.355 147.531C316.338 147.626 316.318 147.667 316.33 147.637C316.34 147.612 316.366 147.555 316.419 147.46C316.47 147.368 316.539 147.253 316.63 147.114L313.282 144.925ZM312.454 147.932C312.505 148.12 312.579 148.358 312.697 148.596C312.786 148.776 313.043 149.262 313.603 149.585L315.603 146.121C315.866 146.273 316.03 146.453 316.117 146.563C316.207 146.678 316.259 146.774 316.283 146.823C316.328 146.915 316.334 146.956 316.318 146.897L312.454 147.932ZM313.663 149.619C313.773 149.677 313.856 149.725 313.916 149.764C313.946 149.783 313.968 149.798 313.983 149.809C313.999 149.82 314.006 149.826 314.006 149.825C314.006 149.825 313.995 149.817 313.977 149.799C313.96 149.782 313.931 149.751 313.895 149.706C313.832 149.625 313.704 149.442 313.628 149.158L317.491 148.123C317.296 147.394 316.794 146.94 316.548 146.737C316.244 146.487 315.89 146.273 315.543 146.088L313.663 149.619ZM313.628 149.158C313.597 149.046 313.509 148.599 313.8 148.095L317.264 150.095C317.691 149.356 317.621 148.606 317.491 148.123L313.628 149.158ZM313.8 148.095C313.536 148.553 313.518 148.991 313.514 149.128C313.508 149.324 313.527 149.498 313.544 149.619C313.578 149.868 313.64 150.132 313.706 150.379L317.57 149.344C317.547 149.258 317.531 149.191 317.52 149.141C317.508 149.089 317.505 149.068 317.506 149.071C317.506 149.074 317.508 149.089 317.51 149.114C317.512 149.139 317.514 149.184 317.512 149.246C317.511 149.305 317.504 149.406 317.478 149.534C317.454 149.654 317.398 149.862 317.264 150.095L313.8 148.095ZM313.719 150.423L314.312 152.451L318.151 151.328L317.558 149.3L313.719 150.423ZM314.299 152.407C314.381 152.712 314.424 152.917 314.444 153.042C314.454 153.104 314.453 153.121 314.453 153.104C314.452 153.094 314.451 153.066 314.454 153.024C314.456 152.984 314.462 152.914 314.48 152.824L318.399 153.626C318.497 153.147 318.436 152.681 318.396 152.424C318.346 152.104 318.264 151.747 318.163 151.372L314.299 152.407ZM315.334 154.891C315.724 155.15 316.158 155.389 316.623 155.542C317.083 155.693 317.704 155.801 318.374 155.622L317.339 151.758C317.505 151.714 317.644 151.711 317.734 151.718C317.821 151.725 317.87 151.741 317.871 151.742C317.874 151.743 317.846 151.734 317.786 151.703C317.728 151.672 317.648 151.626 317.546 151.558L315.334 154.891ZM318.374 155.622C319.18 155.406 319.941 154.874 320.579 154.348L318.038 151.259C317.788 151.465 317.595 151.602 317.456 151.687C317.307 151.777 317.275 151.775 317.339 151.758L318.374 155.622ZM320.579 154.348C320.932 154.058 321.3 153.715 321.58 153.326C321.805 153.013 322.312 152.204 322.037 151.178L318.173 152.214C318.067 151.816 318.127 151.482 318.189 151.29C318.248 151.107 318.322 151.005 318.332 150.991C318.346 150.971 318.282 151.059 318.038 151.259L320.579 154.348ZM325.673 143.102L326.341 146.153L330.248 145.297L329.58 142.246L325.673 143.102ZM326.363 146.243C326.527 146.854 326.746 147.47 327.068 147.99L330.471 145.889C330.441 145.841 330.344 145.647 330.227 145.207L326.363 146.243ZM326.837 147.457L326.875 147.596L330.738 146.561L330.701 146.422L326.837 147.457ZM326.875 147.596C326.836 147.453 326.856 147.405 326.847 147.529C326.839 147.637 326.814 147.817 326.752 148.083C326.628 148.619 326.391 149.361 326.017 150.335L329.751 151.771C330.157 150.713 330.465 149.778 330.648 148.988C330.811 148.289 330.958 147.382 330.738 146.561L326.875 147.596ZM326.023 150.319C325.64 151.291 325.334 151.961 325.106 152.373C325.052 152.472 325.007 152.547 324.972 152.6C324.936 152.655 324.919 152.677 324.92 152.675C324.921 152.673 324.931 152.661 324.95 152.642C324.968 152.624 325 152.593 325.047 152.556C325.127 152.492 325.322 152.352 325.626 152.271L326.661 156.134C327.386 155.94 327.829 155.434 328.002 155.225C328.233 154.946 328.434 154.622 328.607 154.308C328.959 153.671 329.339 152.815 329.744 151.787L326.023 150.319ZM325.626 152.271C325.19 152.387 324.853 152.61 324.651 152.758C324.425 152.925 324.211 153.119 324.017 153.313C323.626 153.701 323.193 154.209 322.727 154.803L325.873 157.273C326.296 156.735 326.614 156.371 326.839 156.147C326.951 156.035 327.011 155.988 327.023 155.979C327.06 155.952 326.927 156.063 326.661 156.134L325.626 152.271ZM322.732 154.796C322.28 155.367 321.9 155.889 321.633 156.336C321.501 156.556 321.36 156.819 321.258 157.101C321.184 157.304 320.985 157.886 321.168 158.567L325.031 157.532C325.115 157.843 325.094 158.094 325.077 158.219C325.058 158.352 325.027 158.44 325.017 158.469C324.998 158.521 324.999 158.502 325.067 158.386C325.2 158.163 325.454 157.803 325.867 157.28L322.732 154.796ZM321.168 158.567C320.97 157.828 321.263 157.267 321.377 157.083C321.504 156.876 321.634 156.762 321.656 156.743C321.711 156.694 321.701 156.713 321.542 156.807C321.249 156.98 320.735 157.24 319.954 157.595L321.61 161.236C322.424 160.866 323.093 160.536 323.573 160.253C323.8 160.119 324.074 159.945 324.31 159.736C324.422 159.636 324.616 159.45 324.782 159.181C324.935 158.933 325.242 158.318 325.031 157.532L321.168 158.567ZM319.982 157.583C319.191 157.928 318.576 158.205 318.153 158.409C317.948 158.507 317.751 158.606 317.592 158.697C317.523 158.737 317.394 158.813 317.261 158.914C317.206 158.957 317.057 159.074 316.909 159.254C316.835 159.345 316.701 159.522 316.597 159.778C316.492 160.036 316.369 160.501 316.517 161.056L320.381 160.02C320.529 160.571 320.406 161.031 320.303 161.285C320.201 161.535 320.071 161.707 320.002 161.791C319.864 161.959 319.732 162.06 319.699 162.086C319.612 162.152 319.553 162.184 319.579 162.169C319.61 162.151 319.703 162.102 319.887 162.013C320.241 161.843 320.802 161.59 321.582 161.249L319.982 157.583ZM316.517 161.056C317.358 164.195 318.315 166.761 319.425 168.67L322.883 166.66C322.026 165.186 321.18 163.001 320.381 160.02L316.517 161.056ZM319.417 168.657L319.885 169.476L323.358 167.491L322.89 166.673L319.417 168.657ZM319.69 169.001C319.601 168.669 319.623 168.384 319.658 168.2C319.693 168.019 319.749 167.889 319.78 167.825C319.838 167.704 319.881 167.664 319.834 167.721C319.746 167.827 319.539 168.039 319.15 168.375L321.765 171.402C322.21 171.018 322.614 170.635 322.914 170.273C323.061 170.096 323.243 169.853 323.383 169.561C323.499 169.32 323.753 168.711 323.554 167.966L319.69 169.001ZM319.172 168.357C318.752 168.709 318.399 169.018 318.126 169.278C317.922 169.471 317.562 169.817 317.339 170.204L320.803 172.204C320.723 172.343 320.658 172.405 320.703 172.355C320.729 172.326 320.784 172.269 320.879 172.179C321.068 172 321.352 171.75 321.744 171.42L319.172 168.357ZM317.339 170.204C317.424 170.058 317.465 170.079 317.248 170.23C317.054 170.366 316.741 170.544 316.275 170.756L317.931 174.397C318.528 174.126 319.075 173.833 319.536 173.511C319.975 173.205 320.469 172.782 320.803 172.204L317.339 170.204ZM316.585 170.645C316.306 170.719 315.419 170.814 313.662 170.844L313.73 174.843C315.403 174.815 316.787 174.732 317.621 174.508L316.585 170.645ZM313.662 170.844C312.838 170.858 312.321 170.827 312.044 170.784C311.894 170.761 311.928 170.75 312.047 170.805C312.112 170.834 312.264 170.911 312.431 171.067C312.608 171.232 312.825 171.508 312.931 171.905L309.068 172.941C309.322 173.891 310.078 174.303 310.382 174.442C310.747 174.609 311.127 174.689 311.428 174.736C312.049 174.833 312.839 174.858 313.73 174.843L313.662 170.844ZM312.966 172.79C313.094 172.1 313.066 171.223 312.985 170.321C312.9 169.366 312.735 168.186 312.498 166.797L308.555 167.47C308.783 168.805 308.929 169.869 309.001 170.677C309.078 171.538 309.054 171.945 309.033 172.057L312.966 172.79ZM312.488 166.745L312.208 165.33L308.284 166.105L308.564 167.521L312.488 166.745ZM312.178 165.2C312.261 165.511 312.251 165.776 312.232 165.941C312.211 166.11 312.173 166.243 312.145 166.326C312.09 166.487 312.028 166.598 312.006 166.636C311.959 166.718 311.927 166.753 311.955 166.717L308.809 164.247C308.738 164.338 308.635 164.475 308.542 164.636C308.497 164.713 308.419 164.857 308.355 165.045C308.313 165.172 308.157 165.647 308.314 166.235L312.178 165.2ZM311.709 166.979C312.095 166.637 312.455 166.179 312.655 165.587C312.86 164.981 312.851 164.372 312.702 163.817L308.838 164.852C308.806 164.731 308.79 164.528 308.866 164.305C308.936 164.096 309.044 163.996 309.055 163.986L311.709 166.979ZM312.702 163.817C312.329 162.426 311.194 161.734 310.178 161.435L309.047 165.271C309.188 165.313 309.172 165.333 309.094 165.267C309.052 165.231 308.998 165.175 308.947 165.097C308.896 165.017 308.86 164.933 308.838 164.852L312.702 163.817ZM310.304 161.476C310.005 161.366 309.824 161.292 309.732 161.251C309.679 161.226 309.706 161.235 309.769 161.274C309.797 161.292 309.892 161.351 310.005 161.452C310.063 161.504 310.156 161.594 310.254 161.723C310.346 161.845 310.495 162.072 310.582 162.397L306.719 163.433C306.879 164.03 307.264 164.367 307.337 164.433C307.473 164.554 307.601 164.637 307.671 164.68C307.818 164.771 307.968 164.842 308.075 164.891C308.304 164.995 308.596 165.11 308.921 165.23L310.304 161.476ZM310.582 162.397C310.606 162.486 310.606 162.533 310.605 162.516C310.605 162.502 310.604 162.453 310.613 162.364C310.632 162.181 310.68 161.905 310.778 161.518L306.901 160.533C306.774 161.035 306.678 161.518 306.633 161.965C306.591 162.385 306.579 162.911 306.719 163.433L310.582 162.397ZM310.78 161.511L310.9 161.032L307.02 160.061L306.9 160.54L310.78 161.511ZM310.906 160.085L310.141 156.861L306.249 157.784L307.014 161.008L310.906 160.085ZM310.127 156.805C309.982 156.262 309.845 155.798 309.718 155.442C309.657 155.269 309.579 155.071 309.485 154.885C309.438 154.792 309.366 154.66 309.265 154.52C309.186 154.411 308.972 154.129 308.597 153.912L306.597 157.376C306.407 157.267 306.275 157.147 306.197 157.068C306.116 156.986 306.059 156.913 306.025 156.865C305.958 156.773 305.922 156.703 305.915 156.689C305.9 156.66 305.913 156.68 305.951 156.787C306.023 156.99 306.127 157.331 306.264 157.84L310.127 156.805ZM308.597 153.912C308.733 153.991 308.887 154.111 309.024 154.284C309.162 154.46 309.253 154.653 309.303 154.839L305.439 155.874C305.618 156.544 306.051 157.061 306.597 157.376L308.597 153.912ZM309.37 155.304L309.305 152.837L305.307 152.942L305.371 155.409L309.37 155.304ZM309.291 152.65C309.223 152.086 309.1 151.488 308.933 150.863L305.069 151.899C305.2 152.387 305.28 152.795 305.32 153.129L309.291 152.65ZM308.933 150.863C308.466 149.121 307.7 147.06 306.66 144.697L302.999 146.308C303.994 148.569 304.675 150.426 305.069 151.899L308.933 150.863ZM306.64 144.653L306.061 143.417L302.439 145.116L303.019 146.352L306.64 144.653ZM306.169 144.829L306.533 143.588L302.694 142.464L302.331 143.704L306.169 144.829ZM306.545 142.509C306.374 141.869 305.983 141.239 305.616 140.716C305.212 140.142 304.677 139.48 304.032 138.742L301.019 141.373C301.617 142.057 302.052 142.602 302.344 143.017C302.672 143.484 302.704 143.627 302.681 143.544L306.545 142.509ZM304.05 138.763L303.397 137.993L300.348 140.583L301.002 141.352L304.05 138.763ZM303.534 140.401C304.739 138.603 305.778 137.877 306.557 137.669L305.522 133.805C303.395 134.375 301.656 136.017 300.211 138.175L303.534 140.401ZM306.347 137.713C307.368 137.554 308.113 137.456 308.606 137.412C308.858 137.389 308.996 137.385 309.052 137.386C309.083 137.387 309.041 137.388 308.958 137.374C308.914 137.367 308.828 137.351 308.719 137.315C308.619 137.282 308.42 137.207 308.202 137.047L310.573 133.825C310.151 133.515 309.716 133.445 309.604 133.427C309.42 133.397 309.248 133.389 309.118 133.387C308.854 133.382 308.553 133.401 308.248 133.428C307.624 133.484 306.778 133.598 305.731 133.761L306.347 137.713ZM308.306 137.118C308.235 137.073 308.305 137.102 308.518 137.369C308.71 137.609 308.955 137.962 309.253 138.447L312.662 136.354C312.314 135.787 311.973 135.285 311.643 134.871C311.332 134.483 310.94 134.057 310.469 133.753L308.306 137.118ZM309.263 138.463L309.61 139.016L312.999 136.891L312.652 136.338L309.263 138.463ZM310.603 139.826C310.891 139.934 311.611 140.191 312.394 139.981L311.359 136.117C311.527 136.072 311.667 136.062 311.762 136.061C311.858 136.061 311.93 136.07 311.969 136.077C312.042 136.089 312.06 136.101 312.006 136.081L310.603 139.826ZM312.394 139.981C312.655 139.911 313.784 139.562 314.043 138.295L310.124 137.493C310.234 136.954 310.549 136.588 310.823 136.384C311.066 136.202 311.283 136.137 311.359 136.117L312.394 139.981ZM313.96 138.587C314.514 137.086 314.913 135.785 314.999 134.847L311.016 134.483C310.983 134.835 310.767 135.686 310.207 137.201L313.96 138.587ZM313.626 136.567C315.359 136.003 316.587 135.627 317.336 135.426L316.301 131.563C315.442 131.793 314.13 132.197 312.389 132.763L313.626 136.567ZM317.159 135.465L317.681 135.375L317 131.433L316.478 131.524L317.159 135.465ZM317.858 135.336L317.951 135.311L316.916 131.448L316.823 131.472L317.858 135.336ZM317.651 135.368C317.874 135.343 318.414 135.34 319.389 135.409L319.67 131.419C318.687 131.35 317.829 131.324 317.216 131.391L317.651 135.368ZM319.452 135.412C319.903 135.43 320.22 135.458 320.425 135.487C320.474 135.494 320.511 135.501 320.538 135.506C320.552 135.509 320.562 135.511 320.569 135.512C320.573 135.513 320.576 135.514 320.577 135.514C320.579 135.515 320.58 135.515 320.58 135.515C320.58 135.515 320.579 135.515 320.577 135.514C320.575 135.513 320.572 135.513 320.567 135.511C320.559 135.509 320.545 135.504 320.527 135.497C320.494 135.484 320.426 135.457 320.339 135.407L322.339 131.943C321.861 131.667 321.313 131.574 320.995 131.528C320.597 131.471 320.127 131.436 319.608 131.416L319.452 135.412ZM320.339 135.407C321.244 135.93 322.391 136.963 323.765 138.678L326.886 136.176C325.375 134.291 323.863 132.823 322.339 131.943L320.339 135.407ZM323.781 138.697C324.038 139.009 324.27 139.279 324.467 139.488C324.564 139.59 324.679 139.705 324.801 139.811C324.854 139.856 325.152 140.126 325.586 140.272L326.868 136.483C326.995 136.526 327.093 136.575 327.155 136.608C327.22 136.643 327.27 136.675 327.303 136.698C327.367 136.742 327.407 136.776 327.417 136.785C327.437 136.802 327.425 136.793 327.372 136.737C327.269 136.629 327.105 136.441 326.87 136.156L323.781 138.697ZM324.295 138.896L324.307 138.942L328.171 137.907L328.159 137.86L324.295 138.896ZM324.307 138.942C324.254 138.742 324.243 138.575 324.242 138.471C324.24 138.363 324.249 138.275 324.256 138.219C324.27 138.109 324.291 138.033 324.297 138.01C324.31 137.963 324.315 137.961 324.287 138.028C324.236 138.153 324.136 138.371 323.97 138.7L327.546 140.493C327.726 140.134 327.879 139.811 327.988 139.546C328.04 139.418 328.102 139.257 328.149 139.089C328.172 139.006 328.204 138.879 328.224 138.727C328.238 138.614 328.274 138.292 328.171 137.907L324.307 138.942ZM323.967 138.707C323.791 139.062 323.633 139.41 323.523 139.725C323.468 139.881 323.408 140.076 323.37 140.289C323.34 140.459 323.28 140.859 323.404 141.321L327.268 140.285C327.325 140.498 327.331 140.672 327.329 140.772C327.327 140.876 327.315 140.953 327.308 140.992C327.295 141.066 327.283 141.091 327.298 141.046C327.311 141.009 327.337 140.943 327.38 140.844C327.423 140.747 327.479 140.628 327.549 140.487L323.967 138.707ZM323.404 141.321L323.417 141.367L327.28 140.332L327.268 140.285L323.404 141.321ZM323.417 141.367C323.659 142.272 324.262 142.947 325.048 143.333L326.813 139.743C326.875 139.774 326.981 139.841 327.084 139.962C327.189 140.087 327.251 140.221 327.28 140.332L323.417 141.367ZM325.186 143.394C325.925 143.691 326.69 143.703 327.404 143.512L326.368 139.648C326.375 139.647 326.415 139.637 326.48 139.64C326.547 139.643 326.615 139.658 326.676 139.682L325.186 143.394ZM327.404 143.512C326.951 143.633 326.488 143.56 326.122 143.357C325.812 143.186 325.662 142.976 325.623 142.919C325.556 142.819 325.603 142.849 325.694 143.192L329.558 142.156C329.435 141.695 329.251 141.141 328.936 140.677C328.633 140.229 327.748 139.279 326.368 139.648L327.404 143.512ZM342.9 154.533L344.875 154.22L344.859 154.117L344.832 154.015L342.9 154.533ZM346.134 161.965L348.066 161.448L347.943 160.992L347.63 160.638L346.134 161.965ZM345.739 162.717L344.237 161.397L344.21 161.427L344.184 161.459L345.739 162.717ZM345.146 163.472L346.584 164.862L346.677 164.766L346.757 164.657L345.146 163.472ZM344.621 164.11L343.027 162.903L342.992 162.949L342.96 162.997L344.621 164.11ZM344.155 164.781L345.756 165.981L345.761 165.974L345.766 165.966L344.155 164.781ZM338.777 166.222L338.97 168.213L338.975 168.213L338.777 166.222ZM335.054 163.642L333.076 163.938L333.076 163.938L335.054 163.642ZM334.724 161.296L332.764 160.895L332.711 161.157L332.728 161.424L334.724 161.296ZM334.874 160.56L336.834 160.96L336.909 160.591L336.845 160.219L334.874 160.56ZM332.581 150.888L330.673 151.489L330.68 151.509L330.687 151.53L332.581 150.888ZM331.455 147.611L329.566 148.27L329.58 148.309L329.595 148.347L331.455 147.611ZM331.298 145.914L332.761 147.278L332.788 147.249L332.814 147.219L331.298 145.914ZM330.822 143.209L330.326 145.147L330.396 145.165L330.467 145.178L330.822 143.209ZM329.591 140.657L331.576 140.41L331.575 140.402L329.591 140.657ZM327.816 135.517L326.147 136.619L326.161 136.64L326.175 136.66L327.816 135.517ZM328.436 131.525L329.883 132.906L329.891 132.897L328.436 131.525ZM334.311 129.155L334.272 131.155L334.293 131.155L334.313 131.155L334.311 129.155ZM336.906 132.535L334.906 132.568L334.906 132.568L336.906 132.535ZM337.432 135.425L336.593 137.241L336.753 137.314L336.923 137.359L337.432 135.425ZM337.881 135.802L339.854 135.472L339.838 135.377L339.813 135.284L337.881 135.802ZM339.902 145.199L338.063 145.985L338.072 146.006L338.081 146.027L339.902 145.199ZM340.354 145.773L338.99 147.236L338.99 147.236L340.354 145.773ZM340.217 147.301L338.597 146.128L338.578 146.154L338.56 146.18L340.217 147.301ZM342.042 150.589L344.029 150.363L344.012 150.215L343.974 150.071L342.042 150.589ZM342.13 151.658L340.17 151.257L340.076 151.72L340.198 152.176L342.13 151.658ZM341.583 152.401L343.086 153.721L343.115 153.688L343.143 153.653L341.583 152.401ZM342.325 154.24L342.561 152.254L342.518 152.249L342.474 152.246L342.325 154.24ZM340.925 154.846C341.038 155.565 341.306 156.684 341.695 158.136L345.559 157.1C345.169 155.646 344.953 154.709 344.875 154.22L340.925 154.846ZM341.695 158.136C342.184 159.961 343.206 161.678 344.637 163.292L347.63 160.638C346.498 159.361 345.848 158.18 345.559 157.1L341.695 158.136ZM344.202 162.483C344.108 162.132 344.142 161.838 344.18 161.665C344.218 161.493 344.274 161.38 344.295 161.339C344.335 161.264 344.341 161.278 344.237 161.397L347.241 164.037C347.441 163.81 347.666 163.524 347.837 163.199C347.973 162.94 348.285 162.268 348.066 161.448L344.202 162.483ZM344.184 161.459C343.907 161.801 343.685 162.083 343.535 162.287L346.757 164.657C346.85 164.532 347.023 164.31 347.294 163.975L344.184 161.459ZM343.708 162.082C343.492 162.305 343.259 162.596 343.027 162.903L346.216 165.317C346.424 165.042 346.541 164.907 346.584 164.862L343.708 162.082ZM342.96 162.997C342.778 163.269 342.641 163.465 342.544 163.596L345.766 165.966C345.913 165.767 346.086 165.516 346.283 165.223L342.96 162.997ZM342.555 163.582C342.489 163.669 342.435 163.736 342.393 163.787C342.349 163.838 342.324 163.863 342.317 163.87C342.307 163.879 342.336 163.85 342.401 163.806C342.435 163.783 342.488 163.75 342.557 163.716C342.627 163.682 342.724 163.641 342.847 163.608L343.882 167.472C344.479 167.312 344.894 166.941 345.086 166.756C345.327 166.525 345.552 166.253 345.756 165.981L342.555 163.582ZM342.847 163.608C342.123 163.802 340.738 164.018 338.579 164.232L338.975 168.213C341.14 167.997 342.813 167.758 343.882 167.472L342.847 163.608ZM338.584 164.232C337.546 164.332 336.861 164.355 336.465 164.331C336.253 164.318 336.245 164.298 336.344 164.332C336.397 164.349 336.565 164.411 336.76 164.564C336.971 164.729 337.249 165.034 337.375 165.505L333.512 166.54C333.809 167.651 334.774 168.023 335.062 168.121C335.462 168.256 335.882 168.303 336.225 168.324C336.941 168.367 337.877 168.319 338.97 168.213L338.584 164.232ZM337.375 165.505C337.382 165.531 337.354 165.402 337.283 164.965C337.22 164.582 337.137 164.043 337.032 163.346L333.076 163.938C333.274 165.257 333.424 166.213 333.512 166.54L337.375 165.505ZM337.032 163.346C336.928 162.647 336.849 162.108 336.795 161.725C336.734 161.297 336.719 161.154 336.72 161.167L332.728 161.424C332.745 161.697 332.877 162.604 333.076 163.938L337.032 163.346ZM336.683 161.697L336.834 160.96L332.915 160.159L332.764 160.895L336.683 161.697ZM336.845 160.219C336.307 157.104 335.893 154.965 335.608 153.903L331.745 154.938C331.974 155.793 332.358 157.746 332.903 160.9L336.845 160.219ZM335.608 153.903C335.336 152.888 334.957 151.666 334.475 150.245L330.687 151.53C331.153 152.903 331.503 154.037 331.745 154.938L335.608 153.903ZM334.488 150.286C334.04 148.864 333.648 147.72 333.314 146.876L329.595 148.347C329.877 149.061 330.236 150.1 330.673 151.489L334.488 150.286ZM333.343 146.952C333.2 146.544 333.093 146.235 333.02 146.026C332.984 145.92 332.957 145.842 332.939 145.79C332.93 145.763 332.925 145.747 332.922 145.738C332.92 145.733 332.921 145.734 332.922 145.74C332.923 145.742 332.925 145.749 332.928 145.758C332.93 145.764 332.937 145.788 332.946 145.82L329.082 146.856C329.111 146.962 329.19 147.188 329.24 147.334C329.315 147.548 329.423 147.861 329.566 148.27L333.343 146.952ZM332.946 145.82C333.03 146.133 333.019 146.403 332.994 146.584C332.969 146.765 332.923 146.906 332.889 146.994C332.824 147.163 332.753 147.271 332.734 147.299C332.693 147.36 332.684 147.36 332.761 147.278L329.835 144.55C329.706 144.689 329.546 144.87 329.411 145.073C329.345 145.171 329.24 145.34 329.156 145.559C329.09 145.731 328.915 146.234 329.082 146.856L332.946 145.82ZM332.814 147.219C333.548 146.365 334.245 145.104 333.852 143.64L329.989 144.675C329.967 144.594 329.96 144.513 329.964 144.443C329.968 144.374 329.982 144.333 329.985 144.323C329.988 144.314 329.982 144.336 329.949 144.387C329.917 144.439 329.865 144.514 329.782 144.61L332.814 147.219ZM333.852 143.64C333.691 143.039 333.37 142.464 332.847 142.012C332.334 141.569 331.739 141.342 331.176 141.241L330.467 145.178C330.496 145.183 330.38 145.167 330.234 145.04C330.076 144.904 330.009 144.749 329.989 144.675L333.852 143.64ZM331.318 141.272C331.197 141.241 331.102 141.214 331.031 141.192C330.995 141.182 330.968 141.173 330.948 141.166C330.938 141.162 330.931 141.16 330.925 141.158C330.923 141.157 330.921 141.156 330.919 141.155C330.918 141.155 330.918 141.155 330.918 141.155C330.917 141.155 330.917 141.155 330.917 141.155C330.917 141.155 330.917 141.155 330.917 141.155C330.917 141.154 330.917 141.155 330.917 141.155C330.917 141.154 330.917 141.155 330.917 141.155C330.917 141.154 330.917 141.155 330.917 141.155C330.917 141.154 330.917 141.155 330.917 141.155C330.917 141.155 330.917 141.155 330.917 141.155C330.917 141.155 330.917 141.155 330.918 141.155C330.918 141.155 330.919 141.155 330.919 141.155C330.921 141.156 330.923 141.157 330.926 141.158C330.932 141.161 330.942 141.166 330.956 141.172C330.98 141.184 331.032 141.211 331.1 141.256C331.162 141.297 331.283 141.382 331.414 141.522C331.539 141.655 331.753 141.924 331.863 142.334L327.999 143.369C328.21 144.156 328.802 144.532 328.9 144.596C329.101 144.729 329.298 144.815 329.427 144.867C329.698 144.975 330.014 145.067 330.326 145.147L331.318 141.272ZM331.863 142.334C331.863 142.335 331.862 142.331 331.86 142.323C331.858 142.315 331.855 142.304 331.852 142.29C331.846 142.26 331.838 142.221 331.828 142.17C331.809 142.068 331.786 141.934 331.76 141.765C331.708 141.427 331.646 140.977 331.576 140.41L327.606 140.904C327.745 142.015 327.873 142.899 327.999 143.369L331.863 142.334ZM331.575 140.402C331.419 139.191 331.247 138.184 331.047 137.434L327.183 138.47C327.313 138.957 327.459 139.753 327.607 140.911L331.575 140.402ZM331.047 137.434C330.789 136.471 330.192 135.428 329.457 134.374L326.175 136.66C326.841 137.616 327.11 138.196 327.183 138.47L331.047 137.434ZM329.485 134.415C329.156 133.916 328.915 133.54 328.757 133.28C328.677 133.148 328.628 133.063 328.602 133.015C328.59 132.991 328.591 132.992 328.599 133.011C328.6 133.013 328.644 133.106 328.682 133.247L324.819 134.283C324.897 134.575 325.037 134.83 325.079 134.908C325.152 135.045 325.242 135.198 325.339 135.358C325.536 135.682 325.808 136.105 326.147 136.619L329.485 134.415ZM328.682 133.247C328.794 133.663 328.73 133.993 328.698 134.123C328.662 134.27 328.617 134.361 328.609 134.378C328.592 134.412 328.611 134.367 328.721 134.222C328.931 133.943 329.305 133.511 329.883 132.906L326.989 130.143C326.377 130.785 325.876 131.35 325.524 131.817C325.353 132.045 325.169 132.312 325.029 132.594C324.958 132.735 324.871 132.935 324.812 133.175C324.758 133.398 324.691 133.806 324.819 134.283L328.682 133.247ZM329.891 132.897C330.463 132.29 330.921 131.861 331.271 131.58C331.665 131.264 331.772 131.26 331.653 131.292L330.618 127.428C329.913 127.617 329.276 128.052 328.769 128.459C328.22 128.899 327.621 129.473 326.981 130.152L329.891 132.897ZM331.653 131.292C331.972 131.206 332.778 131.126 334.272 131.155L334.35 127.156C332.847 127.126 331.536 127.182 330.618 127.428L331.653 131.292ZM334.313 131.155C334.637 131.155 334.898 131.167 335.102 131.188C335.311 131.208 335.431 131.235 335.484 131.25C335.548 131.268 335.46 131.254 335.316 131.147C335.15 131.024 334.909 130.77 334.801 130.366L338.665 129.33C338.316 128.03 337.153 127.567 336.584 127.404C335.913 127.212 335.12 127.154 334.309 127.155L334.313 131.155ZM334.801 130.366C334.789 130.321 334.819 130.446 334.849 130.903C334.875 131.306 334.894 131.858 334.906 132.568L338.906 132.501C338.893 131.761 338.872 131.139 338.84 130.646C338.812 130.207 338.768 129.715 338.665 129.33L334.801 130.366ZM334.906 132.568C334.919 133.301 334.935 133.89 334.954 134.327C334.964 134.545 334.976 134.74 334.99 134.904C335 135.018 335.022 135.269 335.085 135.507L338.949 134.472C338.988 134.618 338.987 134.697 338.975 134.56C338.967 134.473 338.959 134.338 338.95 134.146C338.933 133.765 338.918 133.22 338.906 132.501L334.906 132.568ZM335.085 135.507C335.332 136.429 336.002 136.967 336.593 137.241L338.271 133.61C338.332 133.638 338.465 133.709 338.606 133.858C338.757 134.017 338.884 134.227 338.949 134.472L335.085 135.507ZM336.923 137.359C336.85 137.34 336.657 137.278 336.446 137.1C336.212 136.904 336.032 136.63 335.949 136.319L339.813 135.284C339.515 134.171 338.613 133.668 337.941 133.491L336.923 137.359ZM335.908 136.131C336.51 139.734 336.992 142.252 337.352 143.596L341.216 142.561C340.913 141.432 340.46 139.099 339.854 135.472L335.908 136.131ZM337.352 143.596C337.654 144.722 337.903 145.61 338.063 145.985L341.741 144.413C341.753 144.44 341.712 144.333 341.601 143.953C341.504 143.62 341.376 143.158 341.216 142.561L337.352 143.596ZM338.081 146.027C338.314 146.539 338.672 146.939 338.99 147.236L341.718 144.311C341.693 144.287 341.675 144.269 341.663 144.256C341.651 144.243 341.646 144.237 341.647 144.239C341.648 144.24 341.657 144.251 341.67 144.272C341.683 144.292 341.702 144.325 341.722 144.371L338.081 146.027ZM338.99 147.236C338.991 147.237 338.968 147.216 338.938 147.168C338.906 147.119 338.875 147.052 338.853 146.971L342.717 145.936C342.537 145.266 342.163 144.726 341.718 144.311L338.99 147.236ZM338.853 146.971C338.772 146.668 338.781 146.416 338.792 146.283C338.805 146.138 338.831 146.023 338.85 145.953C338.886 145.816 338.929 145.715 338.947 145.674C338.985 145.586 339.02 145.527 339.022 145.524C339.033 145.504 339.027 145.516 338.987 145.575C338.913 145.686 338.787 145.866 338.597 146.128L341.837 148.474C342.034 148.202 342.195 147.974 342.311 147.801C342.365 147.72 342.43 147.621 342.486 147.524C342.511 147.48 342.561 147.391 342.61 147.279C342.633 147.227 342.68 147.116 342.718 146.971C342.735 146.908 342.86 146.471 342.717 145.936L338.853 146.971ZM338.56 146.18C338.164 146.766 337.548 147.849 337.875 149.071L341.739 148.036C341.829 148.372 341.757 148.604 341.748 148.63C341.742 148.65 341.743 148.641 341.764 148.601C341.784 148.561 341.819 148.502 341.873 148.422L338.56 146.18ZM337.875 149.071C338.063 149.774 338.506 150.254 338.864 150.55C339.231 150.855 339.654 151.089 340.065 151.276L341.722 147.635C341.613 147.585 341.535 147.544 341.481 147.512C341.427 147.48 341.41 147.465 341.418 147.472C341.425 147.478 341.475 147.52 341.537 147.605C341.601 147.693 341.685 147.837 341.739 148.036L337.875 149.071ZM340.065 151.276C340.147 151.313 340.2 151.344 340.231 151.364C340.263 151.385 340.268 151.392 340.257 151.381C340.245 151.369 340.218 151.34 340.187 151.289C340.156 151.238 340.129 151.176 340.11 151.106L343.974 150.071C343.633 148.8 342.645 148.055 341.722 147.635L340.065 151.276ZM340.055 150.814C340.09 151.129 340.113 151.355 340.125 151.502C340.131 151.578 340.133 151.614 340.134 151.622C340.134 151.627 340.133 151.606 340.134 151.57C340.134 151.552 340.135 151.518 340.139 151.475C340.142 151.436 340.15 151.357 340.17 151.257L344.089 152.059C344.148 151.77 344.132 151.495 344.131 151.482C344.128 151.384 344.12 151.277 344.112 151.175C344.095 150.966 344.066 150.692 344.029 150.363L340.055 150.814ZM340.198 152.176C340.12 151.887 340.125 151.644 340.137 151.5C340.149 151.348 340.176 151.227 340.197 151.15C340.237 150.999 340.286 150.889 340.308 150.841C340.355 150.74 340.398 150.672 340.404 150.663C340.423 150.633 340.425 150.632 340.388 150.682C340.323 150.771 340.205 150.923 340.023 151.149L343.143 153.653C343.334 153.415 343.494 153.211 343.61 153.052C343.665 152.978 343.734 152.881 343.797 152.781C343.824 152.737 343.883 152.641 343.939 152.519C343.966 152.461 344.019 152.341 344.061 152.184C344.086 152.091 344.202 151.665 344.062 151.141L340.198 152.176ZM340.081 151.081C339.864 151.328 339.643 151.601 339.471 151.876C339.386 152.011 339.273 152.211 339.188 152.454C339.117 152.657 338.969 153.154 339.13 153.754L342.994 152.719C343.07 153.003 343.065 153.247 343.046 153.411C343.027 153.575 342.99 153.7 342.964 153.775C342.936 153.853 342.909 153.91 342.894 153.94C342.878 153.971 342.866 153.99 342.864 153.994C342.86 154 342.873 153.979 342.914 153.926C342.954 153.876 343.01 153.808 343.086 153.721L340.081 151.081ZM339.13 153.754L339.217 154.079L343.081 153.043L342.994 152.719L339.13 153.754ZM339.217 154.079C339.669 155.768 341.262 156.166 342.175 156.234L342.474 152.246C342.299 152.232 342.362 152.207 342.523 152.3C342.615 152.353 342.736 152.443 342.848 152.585C342.963 152.729 343.039 152.889 343.081 153.043L339.217 154.079ZM342.088 156.226C342.148 156.233 342.019 156.229 341.817 156.126C341.591 156.011 341.14 155.692 340.968 155.051L344.832 154.015C344.619 153.219 344.051 152.775 343.633 152.562C343.239 152.361 342.843 152.288 342.561 152.254L342.088 156.226Z" fill="black"/>
</svg>
